<svg width="408" height="105" viewBox="0 0 408 105" fill="none" xmlns="http://www.w3.org/2000/svg">
<rect width="408" height="105" fill="#E5E5E5"/>
<path d="M2.88 45C3.104 45 3.328 44.776 3.552 44.328C3.776 43.88 3.888 43.144 3.888 42.12V19.08C3.888 18.056 3.776 17.336 3.552 16.92C3.328 16.472 3.104 16.232 2.88 16.2H11.76C11.696 16.2 11.728 16.424 11.856 16.872C11.984 17.32 12.288 18.088 12.768 19.176C12.96 19.592 13.296 20.328 13.776 21.384C14.288 22.44 14.896 23.704 15.6 25.176C16.304 26.616 17.056 28.168 17.856 29.832C18.656 31.496 19.472 33.192 20.304 34.92C21.136 36.616 21.92 38.216 22.656 39.72H22.704C23.472 38.184 24.272 36.568 25.104 34.872C25.936 33.144 26.768 31.432 27.6 29.736C28.432 28.04 29.2 26.472 29.904 25.032C30.608 23.56 31.2 22.312 31.68 21.288C32.192 20.232 32.544 19.496 32.736 19.08C33.184 18.056 33.472 17.32 33.6 16.872C33.76 16.424 33.808 16.2 33.744 16.2H42.576C42.352 16.2 42.128 16.424 41.904 16.872C41.68 17.32 41.568 18.072 41.568 19.128V42.12C41.568 43.144 41.68 43.88 41.904 44.328C42.128 44.776 42.352 45 42.576 45H35.232C35.456 45 35.664 44.776 35.856 44.328C36.08 43.88 36.192 43.144 36.192 42.12V22.248H36.096C35.264 23.912 34.368 25.736 33.408 27.72C32.448 29.672 31.504 31.608 30.576 33.528C29.648 35.416 28.816 37.128 28.08 38.664C27.376 40.168 26.848 41.32 26.496 42.12C26.048 43.112 25.808 43.832 25.776 44.28C25.776 44.728 25.856 44.968 26.016 45H19.296C19.456 45 19.536 44.792 19.536 44.376C19.536 43.928 19.296 43.176 18.816 42.12C18.528 41.448 18.032 40.376 17.328 38.904C16.624 37.432 15.808 35.736 14.88 33.816C13.984 31.896 13.056 29.928 12.096 27.912C11.136 25.864 10.24 23.976 9.408 22.248H9.264V42.12C9.264 43.144 9.376 43.88 9.6 44.328C9.824 44.776 10.048 45 10.272 45H2.88ZM50.6048 17.928C49.6768 17.928 48.9568 17.672 48.4448 17.16C47.9328 16.616 47.6768 15.992 47.6768 15.288C47.6768 14.552 47.9168 13.928 48.3968 13.416C48.9088 12.904 49.6448 12.648 50.6048 12.648C51.5648 12.648 52.2848 12.904 52.7648 13.416C53.2768 13.928 53.5328 14.552 53.5328 15.288C53.5328 15.992 53.2768 16.616 52.7648 17.16C52.2528 17.672 51.5328 17.928 50.6048 17.928ZM47.6768 45C47.9008 45 48.1088 44.776 48.3008 44.328C48.5248 43.88 48.6367 43.144 48.6367 42.12V25.416C48.6367 24.392 48.5248 23.672 48.3008 23.256C48.1088 22.808 47.9008 22.568 47.6768 22.536H53.5328V42.12C53.5328 43.144 53.6288 43.88 53.8208 44.328C54.0448 44.776 54.2688 45 54.4928 45H47.6768ZM58.5986 45C58.8226 45 59.0306 44.776 59.2226 44.328C59.4466 43.88 59.5586 43.144 59.5586 42.12V25.896C59.5586 24.872 59.4466 24.152 59.2226 23.736C59.0306 23.288 58.8226 23.048 58.5986 23.016C60.0066 23.016 61.2226 22.92 62.2466 22.728C63.3026 22.504 64.0386 22.28 64.4546 22.056V24.984L64.3586 25.608L64.4546 25.704C65.1586 24.808 66.1986 23.976 67.5746 23.208C68.9506 22.44 70.7746 22.056 73.0466 22.056C76.0226 22.056 78.2946 22.904 79.8626 24.6C81.4626 26.296 82.2626 28.952 82.2626 32.568V42.12C82.2626 43.144 82.3586 43.88 82.5506 44.328C82.7746 44.776 82.9986 45 83.2226 45H76.4066C76.6306 45 76.8386 44.776 77.0306 44.328C77.2546 43.88 77.3666 43.144 77.3666 42.12V32.712C77.3666 30.824 77.1266 29.352 76.6466 28.296C76.1666 27.24 75.4946 26.504 74.6306 26.088C73.7986 25.64 72.8226 25.416 71.7026 25.416C70.5186 25.416 69.3666 25.672 68.2466 26.184C67.1266 26.696 66.2146 27.512 65.5106 28.632C64.8066 29.752 64.4546 31.256 64.4546 33.144V42.12C64.4546 43.144 64.5506 43.88 64.7426 44.328C64.9666 44.776 65.1906 45 65.4146 45H58.5986ZM98.373 45.48C95.333 45.48 92.965 44.968 91.269 43.944C89.605 42.92 88.437 41.528 87.765 39.768C87.125 38.008 86.805 36.024 86.805 33.816C86.805 31.576 87.125 29.576 87.765 27.816C88.437 26.056 89.605 24.664 91.269 23.64C92.965 22.584 95.333 22.056 98.373 22.056C100.293 22.056 101.893 22.312 103.173 22.824C104.453 23.336 105.461 23.992 106.197 24.792L106.293 24.744L106.197 23.832V14.76C106.197 13.736 106.085 13.016 105.861 12.6C105.669 12.152 105.461 11.912 105.237 11.88H111.093V42.12C111.093 43.144 111.189 43.88 111.381 44.328C111.605 44.776 111.829 45 112.053 45H106.197V43.512L106.341 42.6L106.197 42.552C105.461 43.384 104.453 44.088 103.173 44.664C101.893 45.208 100.293 45.48 98.373 45.48ZM98.709 42.072C100.341 42.072 101.653 41.832 102.645 41.352C103.637 40.84 104.389 40.184 104.901 39.384C105.413 38.552 105.749 37.656 105.909 36.696C106.101 35.736 106.197 34.776 106.197 33.816C106.197 32.984 106.101 32.088 105.909 31.128C105.717 30.136 105.365 29.208 104.853 28.344C104.341 27.48 103.589 26.776 102.597 26.232C101.605 25.688 100.309 25.416 98.709 25.416C96.021 25.416 94.165 26.184 93.141 27.72C92.149 29.256 91.653 31.304 91.653 33.864C91.653 35.56 91.845 37.032 92.229 38.28C92.645 39.496 93.365 40.44 94.389 41.112C95.413 41.752 96.853 42.072 98.709 42.072ZM129.109 45.48C126.101 45.48 123.573 45.32 121.525 45C119.509 44.68 118.133 44.36 117.397 44.04V43.08L116.389 38.952C117.221 39.624 118.677 40.328 120.757 41.064C122.869 41.768 125.429 42.12 128.437 42.12C130.421 42.12 131.909 41.992 132.901 41.736C133.893 41.448 134.549 41.08 134.869 40.632C135.189 40.152 135.349 39.624 135.349 39.048C135.349 38.376 135.109 37.848 134.629 37.464C134.181 37.048 133.317 36.712 132.037 36.456C130.789 36.168 128.933 35.88 126.469 35.592C123.781 35.272 121.701 34.808 120.229 34.2C118.789 33.592 117.797 32.824 117.253 31.896C116.709 30.936 116.437 29.8 116.437 28.488C116.437 27.464 116.709 26.456 117.253 25.464C117.797 24.472 118.805 23.656 120.277 23.016C121.781 22.376 123.909 22.056 126.661 22.056C129.637 22.056 132.133 22.216 134.149 22.536C136.197 22.856 137.589 23.176 138.325 23.496V24.456L139.285 28.104C138.485 27.528 137.029 26.936 134.917 26.328C132.805 25.72 130.261 25.416 127.285 25.416C124.917 25.416 123.333 25.688 122.533 26.232C121.733 26.744 121.333 27.416 121.333 28.248C121.333 28.728 121.429 29.16 121.621 29.544C121.813 29.896 122.197 30.216 122.773 30.504C123.381 30.792 124.277 31.048 125.461 31.272C126.677 31.496 128.293 31.72 130.309 31.944C133.029 32.232 135.093 32.68 136.501 33.288C137.909 33.896 138.869 34.664 139.381 35.592C139.925 36.488 140.197 37.544 140.197 38.76C140.197 40.072 139.829 41.24 139.093 42.264C138.389 43.256 137.221 44.04 135.589 44.616C133.957 45.192 131.797 45.48 129.109 45.48ZM156.255 45C156.479 45 156.703 44.776 156.927 44.328C157.151 43.88 157.263 43.144 157.263 42.12V19.08C157.263 18.056 157.151 17.336 156.927 16.92C156.703 16.472 156.479 16.232 156.255 16.2H183.279V17.16L184.239 21.768C183.439 21.416 182.031 21.048 180.015 20.664C177.999 20.248 175.567 20.04 172.719 20.04H164.607C163.647 20.04 163.071 20.12 162.879 20.28C162.719 20.408 162.639 20.808 162.639 21.48V26.952C162.639 27.656 162.719 28.072 162.879 28.2C163.071 28.328 163.631 28.392 164.559 28.392H172.479C174.335 28.392 175.823 28.296 176.943 28.104C178.095 27.88 178.847 27.656 179.199 27.432C178.975 28.04 178.751 28.824 178.527 29.784C178.335 30.712 178.239 31.528 178.239 32.232H164.559C163.631 32.232 163.071 32.296 162.879 32.424C162.719 32.52 162.639 32.936 162.639 33.672V39.624C162.639 40.36 162.719 40.792 162.879 40.92C163.039 41.048 163.599 41.112 164.559 41.112H178.527C180.383 41.112 181.871 40.904 182.991 40.488C184.143 40.04 184.895 39.608 185.247 39.192L184.287 43.512V45H156.255ZM188.684 56.712C186.764 56.712 185.243 56.52 184.123 56.136C183.003 55.752 182.283 55.384 181.963 55.032L182.923 49.992V48.552C183.147 49.224 183.515 49.928 184.027 50.664C184.507 51.432 185.131 52.072 185.899 52.584C186.668 53.096 187.532 53.352 188.492 53.352C190.124 53.352 191.404 52.872 192.332 51.912C193.292 50.952 194.188 49.672 195.02 48.072C195.66 46.792 196.06 45.912 196.22 45.432C196.028 45.176 195.724 44.584 195.308 43.656C194.892 42.728 194.396 41.608 193.82 40.296C193.244 38.952 192.636 37.528 191.996 36.024C191.388 34.52 190.78 33.064 190.172 31.656C189.564 30.248 189.02 29 188.54 27.912C188.06 26.824 187.692 26.04 187.436 25.56C186.892 24.536 186.396 23.784 185.947 23.304C185.499 22.824 185.179 22.568 184.987 22.536H192.812C192.556 22.536 192.38 22.776 192.284 23.256C192.22 23.704 192.396 24.472 192.812 25.56C193.068 26.168 193.42 27.048 193.868 28.2C194.316 29.32 194.812 30.6 195.356 32.04C195.9 33.448 196.46 34.888 197.036 36.36C197.612 37.8 198.14 39.144 198.62 40.392H198.668C199.18 39.08 199.74 37.672 200.348 36.168C200.956 34.664 201.548 33.192 202.124 31.752C202.732 30.312 203.26 29.032 203.708 27.912C204.188 26.792 204.54 25.976 204.764 25.464C205.212 24.44 205.388 23.704 205.292 23.256C205.196 22.808 205.02 22.568 204.764 22.536H212.3C212.108 22.568 211.804 22.808 211.388 23.256C211.004 23.672 210.556 24.392 210.044 25.416C209.756 25.96 209.308 26.888 208.7 28.2C208.124 29.512 207.452 31.016 206.684 32.712C205.916 34.408 205.132 36.168 204.332 37.992C203.532 39.784 202.78 41.48 202.076 43.08C201.372 44.648 200.78 45.944 200.299 46.968C198.828 50.2 197.196 52.632 195.404 54.264C193.612 55.896 191.372 56.712 188.684 56.712ZM225.1 45.48C222.572 45.48 220.492 45.192 218.86 44.616C217.228 44.008 215.948 43.176 215.02 42.12C214.092 41.064 213.436 39.832 213.052 38.424C212.7 37.016 212.524 35.48 212.524 33.816C212.524 30.2 213.548 27.336 215.596 25.224C217.676 23.112 220.748 22.056 224.812 22.056C227.18 22.056 229.084 22.376 230.524 23.016C231.996 23.656 233.1 24.504 233.836 25.56C234.604 26.616 235.116 27.768 235.372 29.016C235.66 30.232 235.804 31.432 235.804 32.616V34.872C235.804 34.776 235.356 34.68 234.46 34.584C233.596 34.456 232.124 34.392 230.044 34.392H217.42C217.42 36.76 218.124 38.632 219.532 40.008C220.94 41.384 223.036 42.072 225.82 42.072C228.22 42.072 230.188 41.784 231.724 41.208C233.292 40.6 234.332 40.008 234.844 39.432V40.392L235.324 43.56C234.62 43.976 233.372 44.408 231.58 44.856C229.82 45.272 227.66 45.48 225.1 45.48ZM219.34 31.224H231.004C231.004 30.392 230.828 29.528 230.476 28.632C230.124 27.736 229.5 26.984 228.604 26.376C227.708 25.736 226.444 25.416 224.812 25.416C222.732 25.416 221.068 25.912 219.82 26.904C218.604 27.896 217.996 29.016 217.996 30.264C217.996 30.584 218.092 30.824 218.284 30.984C218.476 31.144 218.828 31.224 219.34 31.224ZM267.186 45.48C263.698 45.48 260.61 45.32 257.922 45C255.234 44.68 253.298 44.36 252.114 44.04V43.08L251.154 37.944C251.602 38.456 252.45 39 253.698 39.576C254.978 40.152 256.674 40.648 258.786 41.064C260.898 41.448 263.41 41.64 266.322 41.64C268.946 41.64 270.93 41.464 272.274 41.112C273.65 40.728 274.578 40.216 275.058 39.576C275.57 38.904 275.826 38.136 275.826 37.272C275.826 35.736 274.882 34.648 272.994 34.008C271.138 33.368 268.386 32.824 264.738 32.376C261.57 31.96 259.026 31.416 257.106 30.744C255.186 30.04 253.794 29.112 252.93 27.96C252.066 26.808 251.634 25.352 251.634 23.592C251.634 21.352 252.658 19.48 254.706 17.976C256.754 16.472 259.938 15.72 264.258 15.72C267.586 15.72 270.482 15.88 272.946 16.2C275.41 16.52 277.154 16.84 278.178 17.16V18.12L279.618 22.44C278.946 22.024 277.906 21.592 276.498 21.144C275.122 20.696 273.458 20.328 271.506 20.04C269.554 19.72 267.378 19.56 264.978 19.56C261.97 19.56 259.89 19.88 258.738 20.52C257.586 21.16 257.01 22.088 257.01 23.304C257.01 24.904 257.89 26.04 259.65 26.712C261.41 27.352 263.922 27.864 267.186 28.248C270.642 28.632 273.394 29.176 275.442 29.88C277.49 30.584 278.962 31.528 279.858 32.712C280.754 33.896 281.202 35.432 281.202 37.32C281.202 39.848 280.018 41.848 277.65 43.32C275.282 44.76 271.794 45.48 267.186 45.48ZM294.693 45.48C292.485 45.48 290.885 45.016 289.893 44.088C288.901 43.128 288.405 41.576 288.405 39.432V25.896H284.085V22.536C285.557 22.536 286.709 22.36 287.541 22.008C288.373 21.624 288.965 20.968 289.317 20.04C289.669 19.112 289.845 17.816 289.845 16.152H293.301V22.536H302.469C302.245 22.856 302.021 23.336 301.797 23.976C301.605 24.584 301.509 25.224 301.509 25.896H293.301V38.712C293.301 40.184 293.573 41.112 294.117 41.496C294.661 41.88 295.349 42.072 296.181 42.072C297.365 42.072 298.437 41.72 299.397 41.016C300.357 40.312 301.045 39.624 301.461 38.952V40.44L301.941 43.176C301.461 43.688 300.597 44.2 299.349 44.712C298.101 45.224 296.549 45.48 294.693 45.48ZM314.329 45.48C310.841 45.48 308.393 44.856 306.985 43.608C305.577 42.328 304.873 40.616 304.873 38.472C304.873 36.232 305.721 34.472 307.417 33.192C309.113 31.912 311.705 31.272 315.193 31.272C317.689 31.272 319.689 31.528 321.193 32.04C322.697 32.52 323.705 32.936 324.217 33.288C324.185 30.44 323.641 28.424 322.585 27.24C321.561 26.024 319.737 25.416 317.113 25.416C315.225 25.416 313.529 25.64 312.025 26.088C310.553 26.504 309.369 26.968 308.473 27.48C307.577 27.96 307.017 28.312 306.793 28.536V27.576L306.313 23.976C306.601 23.848 307.225 23.64 308.185 23.352C309.145 23.032 310.409 22.744 311.977 22.488C313.545 22.2 315.385 22.056 317.497 22.056C321.529 22.056 324.473 22.92 326.329 24.648C328.185 26.344 329.113 28.968 329.113 32.52V42.12C329.113 43.016 329.209 43.672 329.401 44.088C329.625 44.472 329.849 44.776 330.073 45H324.217V43.56L324.313 42.648L324.217 42.6C323.161 43.56 321.785 44.28 320.089 44.76C318.393 45.24 316.473 45.48 314.329 45.48ZM315.913 42.072C318.505 42.072 320.537 41.704 322.009 40.968C323.481 40.2 324.217 39.24 324.217 38.088C324.217 37.128 323.577 36.312 322.297 35.64C321.049 34.968 319.097 34.632 316.441 34.632C313.977 34.632 312.233 34.952 311.209 35.592C310.217 36.232 309.721 37.192 309.721 38.472C309.721 39.72 310.201 40.632 311.161 41.208C312.153 41.784 313.737 42.072 315.913 42.072ZM343.584 45.48C341.376 45.48 339.776 45.016 338.784 44.088C337.792 43.128 337.296 41.576 337.296 39.432V25.896H332.976V22.536C334.448 22.536 335.6 22.36 336.432 22.008C337.264 21.624 337.856 20.968 338.208 20.04C338.56 19.112 338.736 17.816 338.736 16.152H342.192V22.536H351.36C351.136 22.856 350.912 23.336 350.688 23.976C350.496 24.584 350.4 25.224 350.4 25.896H342.192V38.712C342.192 40.184 342.464 41.112 343.008 41.496C343.552 41.88 344.24 42.072 345.072 42.072C346.256 42.072 347.328 41.72 348.288 41.016C349.248 40.312 349.936 39.624 350.352 38.952V40.44L350.832 43.176C350.352 43.688 349.488 44.2 348.24 44.712C346.992 45.224 345.44 45.48 343.584 45.48ZM364.228 45.48C362.372 45.48 360.74 45.16 359.332 44.52C357.956 43.848 356.884 42.712 356.116 41.112C355.38 39.48 355.012 37.224 355.012 34.344V25.416C355.012 24.392 354.9 23.656 354.676 23.208C354.484 22.76 354.276 22.536 354.052 22.536H360.916C360.692 22.536 360.452 22.76 360.196 23.208C359.972 23.656 359.86 24.392 359.86 25.416V35.016C359.86 37.736 360.34 39.592 361.3 40.584C362.26 41.576 363.524 42.072 365.092 42.072C366.66 42.072 368.02 41.688 369.172 40.92C370.324 40.152 371.22 39.096 371.86 37.752C372.532 36.408 372.868 34.888 372.868 33.192V25.416C372.868 24.392 372.756 23.672 372.532 23.256C372.34 22.808 372.132 22.568 371.908 22.536H377.764V42.12C377.764 43.144 377.86 43.88 378.052 44.328C378.276 44.776 378.5 45 378.724 45H372.868V42.12L372.964 41.16L372.868 41.064C372.612 41.576 372.116 42.184 371.38 42.888C370.676 43.56 369.732 44.168 368.548 44.712C367.364 45.224 365.924 45.48 364.228 45.48ZM395.265 45.48C392.257 45.48 389.729 45.32 387.681 45C385.665 44.68 384.289 44.36 383.553 44.04V43.08L382.545 38.952C383.377 39.624 384.833 40.328 386.913 41.064C389.025 41.768 391.585 42.12 394.593 42.12C396.577 42.12 398.065 41.992 399.057 41.736C400.049 41.448 400.705 41.08 401.025 40.632C401.345 40.152 401.505 39.624 401.505 39.048C401.505 38.376 401.265 37.848 400.785 37.464C400.337 37.048 399.473 36.712 398.193 36.456C396.945 36.168 395.089 35.88 392.625 35.592C389.937 35.272 387.857 34.808 386.385 34.2C384.945 33.592 383.953 32.824 383.409 31.896C382.865 30.936 382.593 29.8 382.593 28.488C382.593 27.464 382.865 26.456 383.409 25.464C383.953 24.472 384.961 23.656 386.433 23.016C387.937 22.376 390.065 22.056 392.817 22.056C395.793 22.056 398.289 22.216 400.305 22.536C402.353 22.856 403.745 23.176 404.481 23.496V24.456L405.441 28.104C404.641 27.528 403.185 26.936 401.073 26.328C398.961 25.72 396.417 25.416 393.441 25.416C391.073 25.416 389.489 25.688 388.689 26.232C387.889 26.744 387.489 27.416 387.489 28.248C387.489 28.728 387.585 29.16 387.777 29.544C387.969 29.896 388.353 30.216 388.929 30.504C389.537 30.792 390.433 31.048 391.617 31.272C392.833 31.496 394.449 31.72 396.465 31.944C399.185 32.232 401.249 32.68 402.657 33.288C404.065 33.896 405.025 34.664 405.537 35.592C406.081 36.488 406.353 37.544 406.353 38.76C406.353 40.072 405.985 41.24 405.249 42.264C404.545 43.256 403.377 44.04 401.745 44.616C400.113 45.192 397.953 45.48 395.265 45.48Z" fill="white"/>
<path d="M4.44 98C4.552 98 4.664 97.888 4.776 97.664C4.888 97.44 4.944 97.072 4.944 96.56V85.04C4.944 84.528 4.888 84.168 4.776 83.96C4.664 83.736 4.552 83.616 4.44 83.6H12.96C14.896 83.6 16.264 83.92 17.064 84.56C17.864 85.2 18.264 86.064 18.264 87.152C18.264 87.952 18.048 88.592 17.616 89.072C17.2 89.552 16.76 89.872 16.296 90.032V90.08C18.392 90.56 19.44 91.808 19.44 93.824C19.44 94.608 19.256 95.32 18.888 95.96C18.52 96.584 17.928 97.08 17.112 97.448C16.312 97.816 15.248 98 13.92 98H4.44ZM8.616 89.696H12.984C13.88 89.696 14.536 89.528 14.952 89.192C15.384 88.84 15.6 88.272 15.6 87.488C15.6 86.832 15.384 86.344 14.952 86.024C14.536 85.688 13.808 85.52 12.768 85.52H8.616C8.136 85.52 7.848 85.552 7.752 85.616C7.672 85.664 7.632 85.872 7.632 86.24V88.976C7.632 89.328 7.672 89.536 7.752 89.6C7.848 89.664 8.136 89.696 8.616 89.696ZM8.592 96.056H13.488C14.656 96.056 15.488 95.848 15.984 95.432C16.496 95 16.752 94.432 16.752 93.728C16.752 92.912 16.464 92.32 15.888 91.952C15.328 91.568 14.288 91.376 12.768 91.376H8.616C8.136 91.376 7.848 91.408 7.752 91.472C7.672 91.536 7.632 91.752 7.632 92.12V95.336C7.632 95.688 7.672 95.896 7.752 95.96C7.848 96.024 8.128 96.056 8.592 96.056ZM27.2843 98.24C26.0203 98.24 24.9803 98.096 24.1643 97.808C23.3483 97.504 22.7083 97.088 22.2443 96.56C21.7803 96.032 21.4523 95.416 21.2603 94.712C21.0843 94.008 20.9963 93.24 20.9963 92.408C20.9963 90.6 21.5083 89.168 22.5323 88.112C23.5723 87.056 25.1083 86.528 27.1403 86.528C28.3243 86.528 29.2763 86.688 29.9963 87.008C30.7323 87.328 31.2843 87.752 31.6523 88.28C32.0363 88.808 32.2923 89.384 32.4203 90.008C32.5643 90.616 32.6363 91.216 32.6363 91.808V92.936C32.6363 92.888 32.4123 92.84 31.9643 92.792C31.5323 92.728 30.7963 92.696 29.7563 92.696H23.4443C23.4443 93.88 23.7963 94.816 24.5003 95.504C25.2043 96.192 26.2523 96.536 27.6443 96.536C28.8443 96.536 29.8283 96.392 30.5963 96.104C31.3803 95.8 31.9003 95.504 32.1562 95.216V95.696L32.3963 97.28C32.0443 97.488 31.4203 97.704 30.5243 97.928C29.6443 98.136 28.5643 98.24 27.2843 98.24ZM24.4043 91.112H30.2363C30.2363 90.696 30.1483 90.264 29.9723 89.816C29.7963 89.368 29.4843 88.992 29.0363 88.688C28.5883 88.368 27.9563 88.208 27.1403 88.208C26.1003 88.208 25.2683 88.456 24.6443 88.952C24.0363 89.448 23.7323 90.008 23.7323 90.632C23.7323 90.792 23.7803 90.912 23.8763 90.992C23.9723 91.072 24.1483 91.112 24.4043 91.112ZM40.9299 98.24C39.2659 98.24 37.9539 97.984 36.9939 97.472C36.0499 96.96 35.3859 96.264 35.0019 95.384C34.6179 94.504 34.4259 93.512 34.4259 92.408C34.4259 90.456 34.9539 88.992 36.0099 88.016C37.0819 87.04 38.6419 86.552 40.6899 86.552C41.9379 86.552 42.9859 86.632 43.8339 86.792C44.6819 86.952 45.2659 87.104 45.5859 87.248V87.728L46.0659 89.816C45.7459 89.48 45.1379 89.136 44.2419 88.784C43.3459 88.416 42.2179 88.232 40.8579 88.232C40.1699 88.232 39.5139 88.352 38.8899 88.592C38.2819 88.816 37.7859 89.232 37.4019 89.84C37.0339 90.448 36.8499 91.312 36.8499 92.432C36.8499 93.52 37.0499 94.368 37.4499 94.976C37.8499 95.568 38.4019 95.976 39.1059 96.2C39.8099 96.424 40.6099 96.536 41.5059 96.536C42.6419 96.536 43.5779 96.36 44.3139 96.008C45.0659 95.656 45.5699 95.312 45.8259 94.976V95.456L46.0659 97.088C45.7619 97.344 45.1619 97.6 44.2659 97.856C43.3859 98.112 42.2739 98.24 40.9299 98.24ZM54.0476 98.24C52.4476 98.24 51.1916 97.984 50.2796 97.472C49.3836 96.96 48.7516 96.264 48.3836 95.384C48.0316 94.504 47.8556 93.512 47.8556 92.408C47.8556 91.288 48.0396 90.288 48.4076 89.408C48.7916 88.528 49.4316 87.832 50.3276 87.32C51.2236 86.792 52.4636 86.528 54.0476 86.528C55.6316 86.528 56.8716 86.792 57.7676 87.32C58.6636 87.832 59.2956 88.528 59.6636 89.408C60.0476 90.288 60.2396 91.288 60.2396 92.408C60.2396 93.512 60.0556 94.504 59.6876 95.384C59.3356 96.264 58.7116 96.96 57.8156 97.472C56.9196 97.984 55.6636 98.24 54.0476 98.24ZM54.0476 96.536C55.0396 96.536 55.8076 96.376 56.3516 96.056C56.8956 95.736 57.2716 95.272 57.4796 94.664C57.6876 94.04 57.7916 93.288 57.7916 92.408C57.7916 91.528 57.6796 90.776 57.4556 90.152C57.2476 89.528 56.8716 89.048 56.3276 88.712C55.7996 88.376 55.0396 88.208 54.0476 88.208C53.0716 88.208 52.3116 88.384 51.7676 88.736C51.2236 89.072 50.8396 89.56 50.6156 90.2C50.4076 90.824 50.3036 91.568 50.3036 92.432C50.3036 93.28 50.4076 94.016 50.6156 94.64C50.8236 95.248 51.1996 95.72 51.7436 96.056C52.2876 96.376 53.0556 96.536 54.0476 96.536ZM62.1821 98C62.2941 98 62.3981 97.888 62.4941 97.664C62.6061 97.44 62.6621 97.072 62.6621 96.56V88.448C62.6621 87.936 62.6061 87.576 62.4941 87.368C62.3981 87.144 62.2941 87.024 62.1821 87.008C62.8861 87.008 63.4941 86.96 64.0061 86.864C64.5341 86.752 64.9021 86.64 65.1101 86.528V87.992L65.0621 88.304L65.1101 88.352C65.3501 88.048 65.6141 87.76 65.9021 87.488C66.2061 87.216 66.5981 86.992 67.0781 86.816C67.5581 86.624 68.1741 86.528 68.9261 86.528C69.9021 86.528 70.7261 86.712 71.3981 87.08C72.0861 87.432 72.6141 87.984 72.9821 88.736C73.1741 88.416 73.4461 88.088 73.7981 87.752C74.1661 87.416 74.6381 87.128 75.2141 86.888C75.7901 86.648 76.4941 86.528 77.3261 86.528C78.8141 86.528 79.9501 86.952 80.7341 87.8C81.5341 88.648 81.9341 89.976 81.9341 91.784V96.56C81.9341 97.072 81.9821 97.44 82.0781 97.664C82.1901 97.888 82.3021 98 82.4141 98H79.0061C79.1181 98 79.2221 97.888 79.3181 97.664C79.4301 97.44 79.4861 97.072 79.4861 96.56V91.856C79.4861 90.912 79.3661 90.176 79.1261 89.648C78.8861 89.12 78.5501 88.752 78.1181 88.544C77.7021 88.32 77.2141 88.208 76.6541 88.208C75.7261 88.208 74.9741 88.504 74.3981 89.096C73.8221 89.672 73.5341 90.656 73.5341 92.048V96.56C73.5341 97.072 73.5821 97.44 73.6781 97.664C73.7901 97.888 73.9021 98 74.0141 98H70.6061C70.7181 98 70.8221 97.888 70.9181 97.664C71.0301 97.44 71.0861 97.072 71.0861 96.56V91.856C71.0861 90.912 70.9661 90.176 70.7261 89.648C70.4861 89.12 70.1501 88.752 69.7181 88.544C69.3021 88.32 68.8141 88.208 68.2541 88.208C67.3581 88.208 66.6061 88.504 65.9981 89.096C65.4061 89.672 65.1101 90.664 65.1101 92.072V96.56C65.1101 97.072 65.1581 97.44 65.2541 97.664C65.3661 97.888 65.4781 98 65.5901 98H62.1821ZM90.4952 98.24C89.2312 98.24 88.1912 98.096 87.3752 97.808C86.5592 97.504 85.9192 97.088 85.4552 96.56C84.9912 96.032 84.6632 95.416 84.4712 94.712C84.2952 94.008 84.2072 93.24 84.2072 92.408C84.2072 90.6 84.7192 89.168 85.7432 88.112C86.7832 87.056 88.3192 86.528 90.3512 86.528C91.5352 86.528 92.4872 86.688 93.2072 87.008C93.9432 87.328 94.4952 87.752 94.8632 88.28C95.2472 88.808 95.5032 89.384 95.6312 90.008C95.7752 90.616 95.8472 91.216 95.8472 91.808V92.936C95.8472 92.888 95.6232 92.84 95.1752 92.792C94.7432 92.728 94.0072 92.696 92.9672 92.696H86.6552C86.6552 93.88 87.0072 94.816 87.7112 95.504C88.4152 96.192 89.4632 96.536 90.8552 96.536C92.0552 96.536 93.0392 96.392 93.8072 96.104C94.5912 95.8 95.1112 95.504 95.3672 95.216V95.696L95.6072 97.28C95.2552 97.488 94.6312 97.704 93.7352 97.928C92.8552 98.136 91.7752 98.24 90.4952 98.24ZM87.6152 91.112H93.4472C93.4472 90.696 93.3592 90.264 93.1832 89.816C93.0072 89.368 92.6952 88.992 92.2472 88.688C91.7992 88.368 91.1672 88.208 90.3512 88.208C89.3112 88.208 88.4792 88.456 87.8552 88.952C87.2472 89.448 86.9432 90.008 86.9432 90.632C86.9432 90.792 86.9912 90.912 87.0872 90.992C87.1832 91.072 87.3592 91.112 87.6152 91.112ZM107.483 98C107.595 98 107.667 97.896 107.699 97.688C107.747 97.464 107.675 97.088 107.483 96.56C107.403 96.352 107.251 95.984 107.027 95.456C106.803 94.928 106.539 94.32 106.235 93.632C105.947 92.928 105.643 92.224 105.323 91.52C105.003 90.8 104.707 90.152 104.435 89.576C104.163 88.984 103.947 88.544 103.787 88.256C103.515 87.744 103.267 87.376 103.043 87.152C102.819 86.912 102.659 86.784 102.562 86.768H106.475C106.331 86.768 106.235 86.88 106.187 87.104C106.139 87.328 106.235 87.712 106.475 88.256C106.603 88.528 106.779 88.944 107.003 89.504C107.227 90.048 107.475 90.68 107.747 91.4C108.035 92.104 108.323 92.824 108.611 93.56C108.899 94.296 109.163 94.984 109.403 95.624H109.427C109.667 94.968 109.923 94.272 110.195 93.536C110.467 92.784 110.731 92.048 110.987 91.328C111.259 90.608 111.499 89.976 111.707 89.432C111.915 88.872 112.075 88.464 112.187 88.208C112.411 87.696 112.499 87.328 112.451 87.104C112.403 86.88 112.315 86.768 112.187 86.768H116.027C115.883 86.768 115.787 86.88 115.739 87.104C115.691 87.328 115.787 87.712 116.027 88.256C116.155 88.528 116.323 88.944 116.531 89.504C116.755 90.048 116.995 90.68 117.251 91.4C117.523 92.104 117.795 92.824 118.067 93.56C118.339 94.296 118.587 94.984 118.811 95.624H118.835C119.107 94.968 119.395 94.272 119.699 93.536C120.003 92.784 120.307 92.048 120.611 91.328C120.915 90.608 121.179 89.976 121.403 89.432C121.643 88.872 121.819 88.464 121.931 88.208C122.155 87.696 122.243 87.328 122.195 87.104C122.147 86.88 122.059 86.768 121.931 86.768H125.699C125.603 86.768 125.451 86.88 125.243 87.104C125.051 87.312 124.827 87.672 124.571 88.184C124.427 88.456 124.219 88.872 123.947 89.432C123.675 89.992 123.371 90.624 123.035 91.328C122.699 92.016 122.371 92.704 122.051 93.392C121.731 94.08 121.451 94.712 121.211 95.288C120.971 95.848 120.811 96.272 120.731 96.56C120.587 97.088 120.531 97.464 120.563 97.688C120.595 97.896 120.651 98 120.731 98H116.891C117.003 98 117.075 97.896 117.107 97.688C117.155 97.464 117.083 97.088 116.891 96.56C116.843 96.416 116.723 96.088 116.531 95.576C116.339 95.064 116.107 94.448 115.835 93.728C115.563 92.992 115.283 92.232 114.995 91.448C114.707 90.664 114.427 89.92 114.155 89.216H114.083C113.827 89.888 113.547 90.608 113.243 91.376C112.939 92.128 112.651 92.864 112.379 93.584C112.107 94.288 111.875 94.912 111.683 95.456C111.491 95.984 111.371 96.352 111.323 96.56C111.179 97.088 111.123 97.464 111.155 97.688C111.187 97.896 111.243 98 111.323 98H107.483ZM126.799 98C126.911 98 127.015 97.888 127.111 97.664C127.223 97.44 127.279 97.072 127.279 96.56V82.88C127.279 82.368 127.223 82.008 127.111 81.8C127.015 81.576 126.911 81.456 126.799 81.44H129.727V87.992L129.679 88.304L129.727 88.352C130.079 87.904 130.599 87.488 131.287 87.104C131.975 86.72 132.887 86.528 134.023 86.528C135.511 86.528 136.647 86.952 137.431 87.8C138.231 88.648 138.631 89.976 138.631 91.784V96.56C138.631 97.072 138.679 97.44 138.775 97.664C138.887 97.888 138.999 98 139.111 98H135.703C135.815 98 135.919 97.888 136.015 97.664C136.127 97.44 136.183 97.072 136.183 96.56V91.856C136.183 90.912 136.063 90.176 135.823 89.648C135.583 89.12 135.247 88.752 134.815 88.544C134.399 88.32 133.911 88.208 133.351 88.208C132.759 88.208 132.183 88.336 131.623 88.592C131.063 88.848 130.607 89.256 130.255 89.816C129.903 90.376 129.727 91.128 129.727 92.072V96.56C129.727 97.072 129.775 97.44 129.871 97.664C129.983 97.888 130.095 98 130.207 98H126.799ZM147.095 98.24C145.495 98.24 144.239 97.984 143.327 97.472C142.431 96.96 141.799 96.264 141.431 95.384C141.079 94.504 140.903 93.512 140.903 92.408C140.903 91.288 141.087 90.288 141.455 89.408C141.839 88.528 142.479 87.832 143.375 87.32C144.271 86.792 145.511 86.528 147.095 86.528C148.679 86.528 149.919 86.792 150.815 87.32C151.711 87.832 152.343 88.528 152.711 89.408C153.095 90.288 153.286 91.288 153.286 92.408C153.286 93.512 153.102 94.504 152.734 95.384C152.383 96.264 151.759 96.96 150.863 97.472C149.967 97.984 148.711 98.24 147.095 98.24ZM147.095 96.536C148.087 96.536 148.855 96.376 149.399 96.056C149.943 95.736 150.319 95.272 150.527 94.664C150.735 94.04 150.839 93.288 150.839 92.408C150.839 91.528 150.727 90.776 150.503 90.152C150.295 89.528 149.919 89.048 149.375 88.712C148.847 88.376 148.087 88.208 147.095 88.208C146.119 88.208 145.359 88.384 144.815 88.736C144.271 89.072 143.887 89.56 143.663 90.2C143.455 90.824 143.351 91.568 143.351 92.432C143.351 93.28 143.455 94.016 143.663 94.64C143.871 95.248 144.247 95.72 144.791 96.056C145.335 96.376 146.103 96.536 147.095 96.536ZM161.139 103.856C160.179 103.856 159.419 103.76 158.859 103.568C158.299 103.376 157.939 103.192 157.779 103.016L158.259 100.496V99.776C158.371 100.112 158.555 100.464 158.811 100.832C159.051 101.216 159.363 101.536 159.747 101.792C160.131 102.048 160.563 102.176 161.043 102.176C161.859 102.176 162.499 101.936 162.963 101.456C163.443 100.976 163.891 100.336 164.307 99.536C164.627 98.896 164.827 98.456 164.907 98.216C164.811 98.088 164.659 97.792 164.451 97.328C164.243 96.864 163.995 96.304 163.707 95.648C163.419 94.976 163.115 94.264 162.795 93.512C162.491 92.76 162.187 92.032 161.883 91.328C161.579 90.624 161.307 90 161.067 89.456C160.827 88.912 160.643 88.52 160.515 88.28C160.243 87.768 159.995 87.392 159.771 87.152C159.547 86.912 159.387 86.784 159.291 86.768H163.203C163.075 86.768 162.987 86.888 162.939 87.128C162.907 87.352 162.995 87.736 163.203 88.28C163.331 88.584 163.507 89.024 163.731 89.6C163.955 90.16 164.203 90.8 164.475 91.52C164.747 92.224 165.027 92.944 165.315 93.68C165.603 94.4 165.867 95.072 166.107 95.696H166.131C166.387 95.04 166.667 94.336 166.971 93.584C167.275 92.832 167.571 92.096 167.859 91.376C168.163 90.656 168.427 90.016 168.651 89.456C168.891 88.896 169.067 88.488 169.179 88.232C169.403 87.72 169.491 87.352 169.443 87.128C169.395 86.904 169.307 86.784 169.179 86.768H172.947C172.851 86.784 172.699 86.904 172.491 87.128C172.299 87.336 172.075 87.696 171.819 88.208C171.675 88.48 171.451 88.944 171.147 89.6C170.859 90.256 170.523 91.008 170.139 91.856C169.755 92.704 169.363 93.584 168.963 94.496C168.563 95.392 168.187 96.24 167.835 97.04C167.483 97.824 167.187 98.472 166.947 98.984C166.211 100.6 165.395 101.816 164.499 102.632C163.603 103.448 162.483 103.856 161.139 103.856ZM179.251 98.24C177.651 98.24 176.395 97.984 175.483 97.472C174.587 96.96 173.955 96.264 173.587 95.384C173.235 94.504 173.059 93.512 173.059 92.408C173.059 91.288 173.243 90.288 173.611 89.408C173.995 88.528 174.635 87.832 175.531 87.32C176.427 86.792 177.667 86.528 179.251 86.528C180.835 86.528 182.075 86.792 182.971 87.32C183.867 87.832 184.499 88.528 184.867 89.408C185.251 90.288 185.443 91.288 185.443 92.408C185.443 93.512 185.259 94.504 184.891 95.384C184.539 96.264 183.915 96.96 183.019 97.472C182.123 97.984 180.867 98.24 179.251 98.24ZM179.251 96.536C180.243 96.536 181.011 96.376 181.555 96.056C182.099 95.736 182.475 95.272 182.683 94.664C182.891 94.04 182.995 93.288 182.995 92.408C182.995 91.528 182.883 90.776 182.659 90.152C182.451 89.528 182.075 89.048 181.531 88.712C181.003 88.376 180.243 88.208 179.251 88.208C178.275 88.208 177.515 88.384 176.971 88.736C176.427 89.072 176.043 89.56 175.819 90.2C175.611 90.824 175.507 91.568 175.507 92.432C175.507 93.28 175.611 94.016 175.819 94.64C176.027 95.248 176.403 95.72 176.947 96.056C177.491 96.376 178.259 96.536 179.251 96.536ZM192.473 98.24C191.545 98.24 190.729 98.08 190.025 97.76C189.337 97.424 188.801 96.856 188.417 96.056C188.049 95.24 187.865 94.112 187.865 92.672V88.208C187.865 87.696 187.809 87.328 187.697 87.104C187.601 86.88 187.497 86.768 187.385 86.768H190.817C190.705 86.768 190.585 86.88 190.457 87.104C190.345 87.328 190.289 87.696 190.289 88.208V93.008C190.289 94.368 190.529 95.296 191.009 95.792C191.489 96.288 192.121 96.536 192.905 96.536C193.689 96.536 194.369 96.344 194.945 95.96C195.521 95.576 195.969 95.048 196.289 94.376C196.625 93.704 196.793 92.944 196.793 92.096V88.208C196.793 87.696 196.737 87.336 196.625 87.128C196.529 86.904 196.425 86.784 196.313 86.768H199.241V96.56C199.241 97.072 199.289 97.44 199.385 97.664C199.497 97.888 199.609 98 199.721 98H196.793V96.56L196.841 96.08L196.793 96.032C196.665 96.288 196.417 96.592 196.049 96.944C195.697 97.28 195.225 97.584 194.633 97.856C194.041 98.112 193.321 98.24 192.473 98.24ZM207.542 98C207.654 98 207.758 97.888 207.854 97.664C207.966 97.44 208.021 97.072 208.021 96.56V88.448C208.021 87.936 207.966 87.576 207.854 87.368C207.758 87.144 207.654 87.024 207.542 87.008C208.246 87.008 208.854 86.96 209.366 86.864C209.894 86.752 210.262 86.64 210.47 86.528V87.992L210.422 88.304L210.47 88.352C210.71 88.048 210.974 87.76 211.262 87.488C211.566 87.216 211.958 86.992 212.438 86.816C212.918 86.624 213.534 86.528 214.286 86.528C215.262 86.528 216.086 86.712 216.758 87.08C217.446 87.432 217.974 87.984 218.342 88.736C218.534 88.416 218.806 88.088 219.158 87.752C219.526 87.416 219.998 87.128 220.574 86.888C221.15 86.648 221.854 86.528 222.686 86.528C224.174 86.528 225.31 86.952 226.094 87.8C226.894 88.648 227.294 89.976 227.294 91.784V96.56C227.294 97.072 227.342 97.44 227.438 97.664C227.55 97.888 227.662 98 227.774 98H224.366C224.478 98 224.582 97.888 224.678 97.664C224.79 97.44 224.846 97.072 224.846 96.56V91.856C224.846 90.912 224.726 90.176 224.486 89.648C224.246 89.12 223.91 88.752 223.478 88.544C223.062 88.32 222.574 88.208 222.014 88.208C221.086 88.208 220.334 88.504 219.758 89.096C219.182 89.672 218.894 90.656 218.894 92.048V96.56C218.894 97.072 218.942 97.44 219.038 97.664C219.15 97.888 219.262 98 219.374 98H215.966C216.078 98 216.182 97.888 216.278 97.664C216.39 97.44 216.446 97.072 216.446 96.56V91.856C216.446 90.912 216.326 90.176 216.086 89.648C215.846 89.12 215.51 88.752 215.078 88.544C214.662 88.32 214.174 88.208 213.614 88.208C212.718 88.208 211.966 88.504 211.358 89.096C210.766 89.672 210.47 90.664 210.47 92.072V96.56C210.47 97.072 210.518 97.44 210.614 97.664C210.726 97.888 210.838 98 210.95 98H207.542ZM235.855 98.24C234.591 98.24 233.551 98.096 232.735 97.808C231.919 97.504 231.279 97.088 230.815 96.56C230.351 96.032 230.023 95.416 229.831 94.712C229.655 94.008 229.567 93.24 229.567 92.408C229.567 90.6 230.079 89.168 231.103 88.112C232.143 87.056 233.679 86.528 235.711 86.528C236.895 86.528 237.847 86.688 238.567 87.008C239.303 87.328 239.855 87.752 240.223 88.28C240.607 88.808 240.863 89.384 240.991 90.008C241.135 90.616 241.207 91.216 241.207 91.808V92.936C241.207 92.888 240.983 92.84 240.535 92.792C240.103 92.728 239.367 92.696 238.327 92.696H232.015C232.015 93.88 232.367 94.816 233.071 95.504C233.775 96.192 234.823 96.536 236.215 96.536C237.415 96.536 238.399 96.392 239.167 96.104C239.951 95.8 240.471 95.504 240.727 95.216V95.696L240.967 97.28C240.615 97.488 239.991 97.704 239.095 97.928C238.215 98.136 237.135 98.24 235.855 98.24ZM232.975 91.112H238.807C238.807 90.696 238.719 90.264 238.543 89.816C238.367 89.368 238.055 88.992 237.607 88.688C237.159 88.368 236.527 88.208 235.711 88.208C234.671 88.208 233.839 88.456 233.215 88.952C232.607 89.448 232.303 90.008 232.303 90.632C232.303 90.792 232.351 90.912 232.447 90.992C232.543 91.072 232.719 91.112 232.975 91.112ZM247.844 98.24C246.1 98.24 244.876 97.928 244.172 97.304C243.468 96.664 243.116 95.808 243.116 94.736C243.116 93.616 243.54 92.736 244.388 92.096C245.236 91.456 246.532 91.136 248.276 91.136C249.524 91.136 250.524 91.264 251.276 91.52C252.028 91.76 252.532 91.968 252.788 92.144C252.772 90.72 252.5 89.712 251.972 89.12C251.46 88.512 250.548 88.208 249.236 88.208C248.292 88.208 247.444 88.32 246.692 88.544C245.956 88.752 245.364 88.984 244.916 89.24C244.468 89.48 244.188 89.656 244.076 89.768V89.288L243.836 87.488C243.98 87.424 244.292 87.32 244.772 87.176C245.252 87.016 245.884 86.872 246.668 86.744C247.452 86.6 248.372 86.528 249.428 86.528C251.444 86.528 252.916 86.96 253.844 87.824C254.772 88.672 255.236 89.984 255.236 91.76V96.56C255.236 97.008 255.284 97.336 255.38 97.544C255.492 97.736 255.604 97.888 255.716 98H252.788V97.28L252.836 96.824L252.788 96.8C252.26 97.28 251.572 97.64 250.724 97.88C249.876 98.12 248.916 98.24 247.844 98.24ZM248.636 96.536C249.932 96.536 250.948 96.352 251.684 95.984C252.42 95.6 252.788 95.12 252.788 94.544C252.788 94.064 252.468 93.656 251.828 93.32C251.204 92.984 250.228 92.816 248.9 92.816C247.668 92.816 246.796 92.976 246.284 93.296C245.788 93.616 245.54 94.096 245.54 94.736C245.54 95.36 245.78 95.816 246.26 96.104C246.756 96.392 247.548 96.536 248.636 96.536ZM257.792 98C257.904 98 258.008 97.888 258.104 97.664C258.216 97.44 258.271 97.072 258.271 96.56V88.448C258.271 87.936 258.216 87.576 258.104 87.368C258.008 87.144 257.904 87.024 257.792 87.008C258.496 87.008 259.104 86.96 259.616 86.864C260.144 86.752 260.512 86.64 260.72 86.528V87.992L260.672 88.304L260.72 88.352C261.072 87.904 261.592 87.488 262.28 87.104C262.968 86.72 263.88 86.528 265.016 86.528C266.504 86.528 267.64 86.952 268.424 87.8C269.224 88.648 269.624 89.976 269.624 91.784V96.56C269.624 97.072 269.672 97.44 269.768 97.664C269.88 97.888 269.992 98 270.104 98H266.696C266.808 98 266.912 97.888 267.008 97.664C267.12 97.44 267.176 97.072 267.176 96.56V91.856C267.176 90.912 267.056 90.176 266.816 89.648C266.576 89.12 266.24 88.752 265.808 88.544C265.392 88.32 264.904 88.208 264.344 88.208C263.752 88.208 263.176 88.336 262.616 88.592C262.056 88.848 261.6 89.256 261.248 89.816C260.896 90.376 260.72 91.128 260.72 92.072V96.56C260.72 97.072 260.768 97.44 260.864 97.664C260.976 97.888 261.088 98 261.2 98H257.792ZM276.839 98.24C275.735 98.24 274.935 98.008 274.439 97.544C273.943 97.064 273.695 96.288 273.695 95.216V88.448H271.535V86.768C272.271 86.768 272.847 86.68 273.263 86.504C273.679 86.312 273.975 85.984 274.151 85.52C274.327 85.056 274.415 84.408 274.415 83.576H276.143V86.768H280.727C280.615 86.928 280.503 87.168 280.391 87.488C280.295 87.792 280.247 88.112 280.247 88.448H276.143V94.856C276.143 95.592 276.279 96.056 276.551 96.248C276.823 96.44 277.167 96.536 277.583 96.536C278.175 96.536 278.711 96.36 279.191 96.008C279.671 95.656 280.015 95.312 280.223 94.976V95.72L280.463 97.088C280.223 97.344 279.791 97.6 279.167 97.856C278.543 98.112 277.767 98.24 276.839 98.24ZM292.518 98.24C291.414 98.24 290.614 98.008 290.118 97.544C289.622 97.064 289.374 96.288 289.374 95.216V88.448H287.214V86.768C287.95 86.768 288.526 86.68 288.942 86.504C289.358 86.312 289.654 85.984 289.83 85.52C290.006 85.056 290.094 84.408 290.094 83.576H291.822V86.768H296.406C296.294 86.928 296.182 87.168 296.07 87.488C295.974 87.792 295.926 88.112 295.926 88.448H291.822V94.856C291.822 95.592 291.958 96.056 292.23 96.248C292.502 96.44 292.846 96.536 293.262 96.536C293.854 96.536 294.39 96.36 294.87 96.008C295.35 95.656 295.694 95.312 295.902 94.976V95.72L296.142 97.088C295.902 97.344 295.47 97.6 294.846 97.856C294.222 98.112 293.446 98.24 292.518 98.24ZM303.68 98.24C302.08 98.24 300.824 97.984 299.912 97.472C299.016 96.96 298.384 96.264 298.016 95.384C297.664 94.504 297.488 93.512 297.488 92.408C297.488 91.288 297.672 90.288 298.04 89.408C298.424 88.528 299.064 87.832 299.96 87.32C300.856 86.792 302.096 86.528 303.68 86.528C305.264 86.528 306.504 86.792 307.4 87.32C308.296 87.832 308.928 88.528 309.296 89.408C309.68 90.288 309.872 91.288 309.872 92.408C309.872 93.512 309.688 94.504 309.32 95.384C308.968 96.264 308.344 96.96 307.448 97.472C306.552 97.984 305.296 98.24 303.68 98.24ZM303.68 96.536C304.672 96.536 305.44 96.376 305.984 96.056C306.528 95.736 306.904 95.272 307.112 94.664C307.32 94.04 307.424 93.288 307.424 92.408C307.424 91.528 307.312 90.776 307.088 90.152C306.88 89.528 306.504 89.048 305.96 88.712C305.432 88.376 304.672 88.208 303.68 88.208C302.704 88.208 301.944 88.384 301.4 88.736C300.856 89.072 300.472 89.56 300.248 90.2C300.04 90.824 299.936 91.568 299.936 92.432C299.936 93.28 300.04 94.016 300.248 94.64C300.456 95.248 300.832 95.72 301.376 96.056C301.92 96.376 302.688 96.536 303.68 96.536ZM324.253 98.24C323.373 98.24 322.629 98.136 322.021 97.928C321.429 97.72 320.925 97.432 320.509 97.064L320.461 97.088L320.509 97.544V98H317.581C317.693 98 317.797 97.888 317.893 97.664C318.005 97.44 318.061 97.072 318.061 96.56V82.88C318.061 82.368 318.005 82.008 317.893 81.8C317.797 81.576 317.693 81.456 317.581 81.44H320.509V87.248L320.461 87.704L320.509 87.752C320.829 87.448 321.309 87.168 321.949 86.912C322.605 86.656 323.373 86.528 324.253 86.528C325.741 86.528 326.917 86.792 327.781 87.32C328.645 87.832 329.261 88.528 329.629 89.408C330.013 90.288 330.205 91.288 330.205 92.408C330.205 93.512 330.021 94.504 329.653 95.384C329.285 96.264 328.669 96.96 327.805 97.472C326.941 97.984 325.757 98.24 324.253 98.24ZM324.013 96.536C325.005 96.536 325.773 96.376 326.317 96.056C326.861 95.736 327.237 95.272 327.445 94.664C327.653 94.04 327.757 93.288 327.757 92.408C327.757 91.528 327.645 90.776 327.421 90.152C327.213 89.528 326.837 89.048 326.293 88.712C325.765 88.376 325.005 88.208 324.013 88.208C323.053 88.208 322.317 88.4 321.805 88.784C321.309 89.152 320.965 89.656 320.773 90.296C320.597 90.936 320.509 91.64 320.509 92.408C320.509 93.672 320.757 94.68 321.253 95.432C321.749 96.168 322.669 96.536 324.013 96.536ZM338.183 98.24C336.919 98.24 335.879 98.096 335.063 97.808C334.247 97.504 333.607 97.088 333.143 96.56C332.679 96.032 332.351 95.416 332.159 94.712C331.983 94.008 331.895 93.24 331.895 92.408C331.895 90.6 332.407 89.168 333.431 88.112C334.471 87.056 336.007 86.528 338.039 86.528C339.223 86.528 340.175 86.688 340.895 87.008C341.631 87.328 342.183 87.752 342.551 88.28C342.935 88.808 343.191 89.384 343.319 90.008C343.463 90.616 343.535 91.216 343.535 91.808V92.936C343.535 92.888 343.311 92.84 342.863 92.792C342.431 92.728 341.695 92.696 340.655 92.696H334.343C334.343 93.88 334.695 94.816 335.399 95.504C336.103 96.192 337.151 96.536 338.543 96.536C339.743 96.536 340.727 96.392 341.495 96.104C342.279 95.8 342.799 95.504 343.055 95.216V95.696L343.295 97.28C342.943 97.488 342.319 97.704 341.423 97.928C340.543 98.136 339.463 98.24 338.183 98.24ZM335.303 91.112H341.135C341.135 90.696 341.047 90.264 340.871 89.816C340.695 89.368 340.383 88.992 339.935 88.688C339.487 88.368 338.855 88.208 338.039 88.208C336.999 88.208 336.167 88.456 335.543 88.952C334.935 89.448 334.631 90.008 334.631 90.632C334.631 90.792 334.679 90.912 334.775 90.992C334.871 91.072 335.047 91.112 335.303 91.112ZM351.828 98.24C350.164 98.24 348.852 97.984 347.892 97.472C346.948 96.96 346.284 96.264 345.9 95.384C345.516 94.504 345.324 93.512 345.324 92.408C345.324 90.456 345.852 88.992 346.908 88.016C347.98 87.04 349.54 86.552 351.588 86.552C352.836 86.552 353.884 86.632 354.732 86.792C355.58 86.952 356.164 87.104 356.484 87.248V87.728L356.964 89.816C356.644 89.48 356.036 89.136 355.14 88.784C354.244 88.416 353.116 88.232 351.756 88.232C351.068 88.232 350.412 88.352 349.788 88.592C349.18 88.816 348.684 89.232 348.3 89.84C347.932 90.448 347.748 91.312 347.748 92.432C347.748 93.52 347.948 94.368 348.348 94.976C348.748 95.568 349.3 95.976 350.004 96.2C350.708 96.424 351.508 96.536 352.404 96.536C353.54 96.536 354.476 96.36 355.212 96.008C355.964 95.656 356.468 95.312 356.724 94.976V95.456L356.964 97.088C356.66 97.344 356.06 97.6 355.164 97.856C354.284 98.112 353.172 98.24 351.828 98.24ZM364.946 98.24C363.346 98.24 362.09 97.984 361.178 97.472C360.282 96.96 359.65 96.264 359.282 95.384C358.93 94.504 358.754 93.512 358.754 92.408C358.754 91.288 358.938 90.288 359.306 89.408C359.69 88.528 360.33 87.832 361.226 87.32C362.122 86.792 363.362 86.528 364.946 86.528C366.53 86.528 367.77 86.792 368.666 87.32C369.562 87.832 370.194 88.528 370.562 89.408C370.946 90.288 371.138 91.288 371.138 92.408C371.138 93.512 370.954 94.504 370.586 95.384C370.234 96.264 369.61 96.96 368.714 97.472C367.818 97.984 366.562 98.24 364.946 98.24ZM364.946 96.536C365.938 96.536 366.706 96.376 367.25 96.056C367.794 95.736 368.17 95.272 368.378 94.664C368.586 94.04 368.69 93.288 368.69 92.408C368.69 91.528 368.578 90.776 368.354 90.152C368.146 89.528 367.77 89.048 367.226 88.712C366.698 88.376 365.938 88.208 364.946 88.208C363.97 88.208 363.21 88.384 362.666 88.736C362.122 89.072 361.738 89.56 361.514 90.2C361.306 90.824 361.202 91.568 361.202 92.432C361.202 93.28 361.306 94.016 361.514 94.64C361.722 95.248 362.098 95.72 362.642 96.056C363.186 96.376 363.954 96.536 364.946 96.536ZM373.081 98C373.193 98 373.297 97.888 373.393 97.664C373.505 97.44 373.561 97.072 373.561 96.56V88.448C373.561 87.936 373.505 87.576 373.393 87.368C373.297 87.144 373.193 87.024 373.081 87.008C373.785 87.008 374.393 86.96 374.905 86.864C375.433 86.752 375.801 86.64 376.009 86.528V87.992L375.961 88.304L376.009 88.352C376.249 88.048 376.513 87.76 376.801 87.488C377.105 87.216 377.497 86.992 377.977 86.816C378.457 86.624 379.073 86.528 379.825 86.528C380.801 86.528 381.625 86.712 382.297 87.08C382.985 87.432 383.513 87.984 383.881 88.736C384.073 88.416 384.345 88.088 384.697 87.752C385.065 87.416 385.537 87.128 386.113 86.888C386.689 86.648 387.393 86.528 388.225 86.528C389.713 86.528 390.849 86.952 391.633 87.8C392.433 88.648 392.833 89.976 392.833 91.784V96.56C392.833 97.072 392.881 97.44 392.977 97.664C393.089 97.888 393.201 98 393.313 98H389.905C390.017 98 390.121 97.888 390.217 97.664C390.329 97.44 390.385 97.072 390.385 96.56V91.856C390.385 90.912 390.265 90.176 390.025 89.648C389.785 89.12 389.449 88.752 389.017 88.544C388.601 88.32 388.113 88.208 387.553 88.208C386.625 88.208 385.873 88.504 385.297 89.096C384.721 89.672 384.433 90.656 384.433 92.048V96.56C384.433 97.072 384.481 97.44 384.577 97.664C384.689 97.888 384.801 98 384.913 98H381.505C381.617 98 381.721 97.888 381.817 97.664C381.929 97.44 381.985 97.072 381.985 96.56V91.856C381.985 90.912 381.865 90.176 381.625 89.648C381.385 89.12 381.049 88.752 380.617 88.544C380.201 88.32 379.713 88.208 379.153 88.208C378.257 88.208 377.505 88.504 376.897 89.096C376.305 89.672 376.009 90.664 376.009 92.072V96.56C376.009 97.072 376.057 97.44 376.153 97.664C376.265 97.888 376.377 98 376.489 98H373.081ZM401.394 98.24C400.13 98.24 399.09 98.096 398.274 97.808C397.458 97.504 396.818 97.088 396.354 96.56C395.89 96.032 395.562 95.416 395.37 94.712C395.194 94.008 395.106 93.24 395.106 92.408C395.106 90.6 395.618 89.168 396.642 88.112C397.682 87.056 399.218 86.528 401.25 86.528C402.434 86.528 403.386 86.688 404.106 87.008C404.842 87.328 405.394 87.752 405.762 88.28C406.146 88.808 406.402 89.384 406.53 90.008C406.674 90.616 406.746 91.216 406.746 91.808V92.936C406.746 92.888 406.522 92.84 406.074 92.792C405.642 92.728 404.906 92.696 403.866 92.696H397.554C397.554 93.88 397.906 94.816 398.61 95.504C399.314 96.192 400.362 96.536 401.754 96.536C402.954 96.536 403.938 96.392 404.706 96.104C405.49 95.8 406.01 95.504 406.266 95.216V95.696L406.506 97.28C406.154 97.488 405.53 97.704 404.634 97.928C403.754 98.136 402.674 98.24 401.394 98.24ZM398.514 91.112H404.346C404.346 90.696 404.258 90.264 404.082 89.816C403.906 89.368 403.594 88.992 403.146 88.688C402.698 88.368 402.066 88.208 401.25 88.208C400.21 88.208 399.378 88.456 398.754 88.952C398.146 89.448 397.842 90.008 397.842 90.632C397.842 90.792 397.89 90.912 397.986 90.992C398.082 91.072 398.258 91.112 398.514 91.112Z" fill="white"/>
</svg>
